<svg width="1920" height="1080" viewBox="0 0 1920 1080" fill="none" xmlns="http://www.w3.org/2000/svg">
<g clip-path="url(#clip0_417_17835)">
<path d="M2206.21 0H-224.94V1034.53H2206.21V0Z" fill="url(#paint0_radial_417_17835)"/>
<path d="M1903.24 116.8C1903.28 116.8 1903.31 116.786 1903.34 116.76C1903.36 116.735 1903.38 116.701 1903.38 116.665C1903.38 116.629 1903.36 116.595 1903.34 116.57C1903.31 116.544 1903.28 116.53 1903.24 116.53C1903.2 116.53 1903.17 116.544 1903.14 116.57C1903.12 116.595 1903.1 116.629 1903.1 116.665C1903.1 116.701 1903.12 116.735 1903.14 116.76C1903.17 116.786 1903.2 116.8 1903.24 116.8V116.8Z" fill="#BAE6FF"/>
<path d="M1067.23 940.325C1077.68 874.981 1033.19 813.535 967.844 803.08C902.5 792.625 841.054 837.122 830.599 902.465C820.144 967.809 864.641 1029.26 929.984 1039.71C995.328 1050.17 1056.77 1005.67 1067.23 940.325Z" fill="#FFFFD4"/>
<path fill-rule="evenodd" clip-rule="evenodd" d="M-224.94 807.28C-224.94 807.28 423.5 840.34 672 855.74C847.4 866.61 1106.18 890.13 1106.18 890.13C1106.18 890.13 1195.04 872.13 1233.11 875.83C1453.37 897.22 1822.75 876.89 1822.75 876.89L1631.35 887C1631.35 887 876.6 890.24 424.29 897.22C424.29 897.22 824.85 915.22 1007.48 912.42L1216.13 915.8L-224.94 921.4V807.28Z" fill="url(#paint1_radial_417_17835)"/>
<path style="mix-blend-mode:screen" opacity="0.5" fill-rule="evenodd" clip-rule="evenodd" d="M424.29 897.22L114.15 891.85C114.15 891.85 867.83 877.92 1096 890.2L424.29 897.22Z" fill="url(#paint2_linear_417_17835)"/>
<path style="mix-blend-mode:screen" opacity="0.5" fill-rule="evenodd" clip-rule="evenodd" d="M266 919.5C266 919.5 943.31 905.58 1216.18 915.8L266 919.5Z" fill="url(#paint3_linear_417_17835)"/>
<path opacity="0.49" fill-rule="evenodd" clip-rule="evenodd" d="M-224.94 964.43C-224.94 964.43 -95.09 815.15 213.37 959.82C213.37 959.82 290.13 930.57 364.16 972.46C364.16 972.46 693.66 991.91 917.81 993.73C917.81 993.73 1091.81 987.43 1562.03 904.19C1847.28 853.69 2176.29 891.01 2176.29 891.01C2176.29 891.01 1437.83 1036.58 846.16 1036.58C254.49 1036.58 -224.94 1007.92 -224.94 1007.92V964.43Z" fill="url(#paint4_linear_417_17835)"/>
<path fill-rule="evenodd" clip-rule="evenodd" d="M2206.21 736.65L-224.94 764.29L688.55 767.58L534.47 772.48L328.48 778.62L2209.61 777.26L2206.21 736.65Z" fill="url(#paint5_radial_417_17835)"/>
<path fill-rule="evenodd" clip-rule="evenodd" d="M1756.88 3.21865e-05C1756.88 3.21865e-05 689.53 -40.29 74.92 307L788.43 188C788.43 188 67.45 328.05 -224.94 414.12V592L1970.06 477.78L-224.94 709.12C-224.94 709.12 481.72 692.88 1030.47 684.57C1579.22 676.26 2206.21 607.34 2206.21 607.34V3.21865e-05H1756.88Z" fill="url(#paint6_linear_417_17835)"/>
<path style="mix-blend-mode:screen" opacity="0.5" fill-rule="evenodd" clip-rule="evenodd" d="M-152.22 707C-152.22 707 389.25 672.57 644.56 657.31C924.98 640.55 1365.63 672.21 1365.63 672.21C1367.21 681.07 718.28 689.88 -152.22 707Z" fill="url(#paint7_linear_417_17835)"/>
<path style="mix-blend-mode:screen" opacity="0.3" fill-rule="evenodd" clip-rule="evenodd" d="M1246.42 625.7C1246.42 625.7 1507.12 657.31 1597.32 657.28C1687.52 657.25 1942.1 632.28 1942.1 632.28C1942.1 632.28 1434.46 618.19 1246.42 625.7Z" fill="url(#paint8_linear_417_17835)"/>
<path style="mix-blend-mode:screen" opacity="0.3" fill-rule="evenodd" clip-rule="evenodd" d="M981.19 596.16C981.19 596.16 1260.19 615.27 1601.61 616.48C1943.03 617.69 2206.21 592 2206.21 592V468.12L981.19 596.16Z" fill="url(#paint9_linear_417_17835)"/>
<path style="mix-blend-mode:screen" opacity="0.5" fill-rule="evenodd" clip-rule="evenodd" d="M-224.94 592L1970.06 477.78L2206.2 433.33C2206.2 433.33 1401.72 203.06 745.7 189.12C745.7 189.12 1171.25 205.53 1688.7 379.48C1688.7 379.48 1110.55 236.99 708.87 252.54C307.19 268.09 -176.8 477.77 -176.8 477.77L453.93 539.27L-224.94 592Z" fill="url(#paint10_linear_417_17835)"/>
<path style="mix-blend-mode:screen" opacity="0.5" fill-rule="evenodd" clip-rule="evenodd" d="M-224.94 500.75C-224.94 500.75 74.46 493.35 270.42 543.35L-224.94 578.66V500.75Z" fill="url(#paint11_linear_417_17835)"/>
<path style="mix-blend-mode:screen" opacity="0.5" fill-rule="evenodd" clip-rule="evenodd" d="M74.9199 307C74.9199 307 413.54 162.64 706.74 134C999.94 105.36 1359.64 213.23 1359.64 213.23C1359.64 213.23 1058.1 166 745.7 189.12L74.9199 307Z" fill="url(#paint12_linear_417_17835)"/>
<path style="mix-blend-mode:screen" opacity="0.3" fill-rule="evenodd" clip-rule="evenodd" d="M843.16 88.68C843.16 88.68 1618.54 131.61 2206.21 279V39.55C2206.21 39.55 1534.17 -47.33 843.16 88.68Z" fill="url(#paint13_linear_417_17835)"/>
<path style="mix-blend-mode:screen" opacity="0.75" fill-rule="evenodd" clip-rule="evenodd" d="M524.3 633.36C758.3 652.36 1192.1 636.63 1192.1 636.63C987.44 583.45 524.3 633.36 524.3 633.36Z" fill="url(#paint14_linear_417_17835)"/>
<path style="mix-blend-mode:screen" opacity="0.5" fill-rule="evenodd" clip-rule="evenodd" d="M-201.06 437.18C-201.06 437.18 -69.47 436.18 27.68 374.41C27.68 374.41 -81.26 371.55 -201.06 437.18Z" fill="url(#paint15_linear_417_17835)"/>
<path style="mix-blend-mode:screen" opacity="0.5" fill-rule="evenodd" clip-rule="evenodd" d="M1970.07 477.77C1970.07 477.77 1423.39 287.11 936.19 256.48C448.99 225.85 -28.24 412.3 -28.24 412.3C-28.24 412.3 735.69 489.73 1085.64 523.79C1085.64 523.79 514.49 500.1 -83.31 442.79L-176.8 477.74C-176.8 477.74 542.09 533 819.68 533.2C819.68 533.2 1757.11 494.25 1970.07 477.77Z" fill="url(#paint16_linear_417_17835)"/>
<path style="mix-blend-mode:screen" opacity="0.3" fill-rule="evenodd" clip-rule="evenodd" d="M2206.21 387.38C2206.21 387.38 1660.51 198.74 1173.72 123.67C1173.72 123.67 1856.23 220.06 2206.21 302.39V387.38Z" fill="url(#paint17_linear_417_17835)"/>
<path style="mix-blend-mode:screen" opacity="0.5" fill-rule="evenodd" clip-rule="evenodd" d="M1365.63 672.18L-152.22 707C-152.22 707 960.06 610.76 1365.63 672.18Z" fill="url(#paint18_linear_417_17835)"/>
<path style="mix-blend-mode:screen" opacity="0.6" fill-rule="evenodd" clip-rule="evenodd" d="M1467.76 504.65L-121 583.11C-121 583.11 948.67 506.57 1467.76 504.65Z" fill="url(#paint19_linear_417_17835)"/>
<path style="mix-blend-mode:screen" opacity="0.5" fill-rule="evenodd" clip-rule="evenodd" d="M1174.62 517.93C1174.62 517.93 334.51 454.93 114.15 425.1C114.15 425.1 1225.15 494.97 1516.58 502.36L1174.62 517.93Z" fill="url(#paint20_linear_417_17835)"/>
<path style="mix-blend-mode:screen" opacity="0.5" fill-rule="evenodd" clip-rule="evenodd" d="M1632.12 496.07C1632.12 496.07 650.5 452.79 268.31 418.33C268.31 418.33 1704.06 469.44 2027.49 469.46L1970.07 477.77L1632.12 496.07Z" fill="url(#paint21_linear_417_17835)"/>
<path style="mix-blend-mode:screen" opacity="0.5" fill-rule="evenodd" clip-rule="evenodd" d="M2206.21 433.32C2206.21 433.32 1669.3 293.54 1391.37 254.57C1391.37 254.57 1777.96 430.04 2018.37 467.67L2206.21 433.32Z" fill="url(#paint22_linear_417_17835)"/>
<path style="mix-blend-mode:screen" opacity="0.3" fill-rule="evenodd" clip-rule="evenodd" d="M1942.1 632.31C1942.1 632.31 1697.58 650.41 1584.98 651.68C1472.38 652.95 981.19 596.16 981.19 596.16L2206.19 468.16V592L1942.1 632.31Z" fill="url(#paint23_linear_417_17835)"/>
<path style="mix-blend-mode:screen" opacity="0.6" fill-rule="evenodd" clip-rule="evenodd" d="M2206.21 736.65L290.44 719.13C290.44 719.13 1605.19 757.64 2206.21 736.65Z" fill="url(#paint24_linear_417_17835)"/>
<path style="mix-blend-mode:screen" d="M1111.24 614.134C1601.26 576.686 1991.21 450.828 1982.21 333.021C1973.2 215.214 1568.66 150.07 1078.63 187.518C588.606 224.965 198.659 350.824 207.661 468.63C216.664 586.437 621.208 651.581 1111.24 614.134Z" fill="url(#paint25_radial_417_17835)"/>
<path style="mix-blend-mode:screen" d="M1052.75 695.374C1402.23 680.665 1684.71 649.185 1683.69 625.06C1682.68 600.936 1398.55 593.303 1049.08 608.011C699.601 622.72 417.119 654.2 418.134 678.324C419.149 702.449 703.278 710.082 1052.75 695.374Z" fill="url(#paint26_radial_417_17835)"/>
<path fill-rule="evenodd" clip-rule="evenodd" d="M103.01 906.69L118.73 838.45L132.04 883.83L139.72 860.8L184.62 975.41L103.01 971.86V906.69Z" fill="#1D001A"/>
<path fill-rule="evenodd" clip-rule="evenodd" d="M-102.24 959.82L-85.86 927.56L-63.86 916.81L-83.05 920.4L-58.23 862.05L-46.45 857.36H-56.69L-23.42 775.96L-1.16 862.05L-24.7 844.13L-25.47 854.12L-1.16 867.89V871.17L-26.75 857.36L0.630005 877.92L22.2 967.16L-102.24 959.82Z" fill="#1D001A"/>
<path fill-rule="evenodd" clip-rule="evenodd" d="M27.6801 967.43L47.2101 925.35L75.3601 912.21L76.0401 907.35L50.7901 918.09L51.8201 912.46L75.3601 901.2L53.6101 906.58L90.2001 811.24L101.07 857.36L87.3901 854.37L100.96 858.41L103.01 871.56L88.6701 860L88.4101 862.82L103.19 873.37L121.98 972.46L27.6801 967.43Z" fill="#1D001A"/>
<path fill-rule="evenodd" clip-rule="evenodd" d="M197.17 977.51L225.11 881.94L235.28 929.73L223.1 936.35L235.28 931.25L246.31 979.19L197.17 977.51Z" fill="#1D001A"/>
<path fill-rule="evenodd" clip-rule="evenodd" d="M408.04 987.51L435.98 912.42L446.15 949.96L433.98 955.17L446.15 951.16L457.18 988.83L408.04 987.51Z" fill="#1D001A"/>
<path fill-rule="evenodd" clip-rule="evenodd" d="M1703.71 896.98L1687.98 828.74L1674.67 874.12L1667 851.09L1622.1 965.7L1703.71 962.15V896.98Z" fill="#1D001A"/>
<path fill-rule="evenodd" clip-rule="evenodd" d="M1908.96 950.11L1892.58 917.85L1870.57 907.1L1889.77 910.69L1864.94 852.34L1853.17 847.65H1863.41L1830.14 766.25L1807.87 852.34L1831.42 834.42L1832.19 844.4L1807.87 858.18V861.46L1833.46 847.65L1806.08 868.21L1784.52 957.45L1908.96 950.11Z" fill="#1D001A"/>
<path fill-rule="evenodd" clip-rule="evenodd" d="M1318.37 994.96L1311.82 982.05L1303.01 977.75L1310.69 979.19L1300.76 955.84L1296.05 953.97H1300.15L1286.84 921.4L1277.93 955.84L1287.35 948.68L1287.66 952.67L1277.93 958.18V959.49L1288.17 953.97L1277.21 962.19L1268.59 997.89L1318.37 994.96Z" fill="#1D001A"/>
<path fill-rule="evenodd" clip-rule="evenodd" d="M1779.03 957.72L1759.51 915.63L1731.36 902.5L1730.67 897.63L1755.92 908.38L1754.9 902.75L1731.36 891.49L1753.11 896.87L1716.51 801.53L1705.64 847.65L1719.33 844.66L1705.76 848.7L1703.71 861.85L1718.05 850.29L1718.31 853.11L1703.53 863.66L1684.74 962.75L1779.03 957.72Z" fill="#1D001A"/>
<path fill-rule="evenodd" clip-rule="evenodd" d="M2005.04 932.14L1985.51 890.05L1957.36 876.92L1956.67 872.06L1981.92 882.8L1980.9 877.17L1957.36 865.91L1979.11 871.29L1942.52 775.95L1931.64 822.07L1945.33 819.08L1931.76 823.12L1929.71 836.27L1944.05 824.71L1944.31 827.53L1929.53 838.08L1910.74 937.17L2005.04 932.14Z" fill="#1D001A"/>
<path fill-rule="evenodd" clip-rule="evenodd" d="M1609.54 962.75L1581.61 867.18L1571.44 914.96L1583.61 921.59L1571.44 916.49L1560.41 964.43L1609.54 962.75Z" fill="#1D001A"/>
<path fill-rule="evenodd" clip-rule="evenodd" d="M1560.99 959.65L1542.24 952.42L1483.89 965.7H1439.74L1416.23 975.41L1560.41 964.43L1560.99 959.65Z" fill="#1D001A"/>
<path fill-rule="evenodd" clip-rule="evenodd" d="M1216.13 987.34L1200.34 975.41L1173.05 983.99L1169.63 989.35L1216.13 987.34Z" fill="#1D001A"/>
<path fill-rule="evenodd" clip-rule="evenodd" d="M1229.65 986.7L1232.09 983.99L1235.32 980.07L1242.14 982.38V985.47L1229.65 986.7Z" fill="#1D001A"/>
<path fill-rule="evenodd" clip-rule="evenodd" d="M1025.82 992.9V989.35L1030.67 986.7L1040.65 993.18L1025.82 992.9Z" fill="#1D001A"/>
<path fill-rule="evenodd" clip-rule="evenodd" d="M464 986.36L469.46 981.79L479.7 983.48V987.29L464 986.36Z" fill="#1D001A"/>
<path fill-rule="evenodd" clip-rule="evenodd" d="M2208.26 887C2208.26 887 1551.46 991 965.93 994.1C380.4 997.2 -222.89 952.1 -222.89 952.1V1081H2208.26V887Z" fill="url(#paint27_radial_417_17835)"/>
<path fill-rule="evenodd" clip-rule="evenodd" d="M1678 957L1722.93 935.17H1740.81L1759.4 927.71L1936.4 916.79L1972.16 904.51H1975.58L2062.85 875.81H2206.2V886.43C2206.2 886.43 1799 950.54 1678 957Z" fill="#1D001A"/>
<g style="mix-blend-mode:soft-light" opacity="0.5">
<path fill-rule="evenodd" clip-rule="evenodd" d="M-224.94 1007.92L502.22 1013.16L-224.94 1028.65V1007.92Z" fill="#FFAC9F"/>
</g>
<g style="mix-blend-mode:soft-light" opacity="0.5">
<path fill-rule="evenodd" clip-rule="evenodd" d="M-176.8 957.16L-30.32 1002.46L887.79 1007.92L1060.92 993.18C1060.92 993.18 457.18 997.9 -176.8 957.16Z" fill="#FFAC9F"/>
</g>
<g style="mix-blend-mode:soft-light" opacity="0.5">
<path fill-rule="evenodd" clip-rule="evenodd" d="M991.32 1007.92L1178.51 997.89L1709.43 1013.16L991.32 1007.92Z" fill="#FFAC9F"/>
</g>
<g style="mix-blend-mode:soft-light" opacity="0.5">
<path fill-rule="evenodd" clip-rule="evenodd" d="M2206.21 984.56L1204.21 991.22L2206.21 912.42V984.56Z" fill="#FFAC9F"/>
</g>
<g style="mix-blend-mode:soft-light" opacity="0.5">
<path fill-rule="evenodd" clip-rule="evenodd" d="M1709.43 1013.16L2206.21 997.95V1020.89L1709.43 1013.16Z" fill="#FFAC9F"/>
</g>
<path fill-rule="evenodd" clip-rule="evenodd" d="M2206.21 1020.89V1080.51H-224.94V1034.51C-224.94 1034.51 -200.57 1033.86 -158.22 1032.78C-147.46 1032.51 -135.52 1032.21 -122.53 1031.86C-115.24 1031.7 -107.59 1031.51 -99.65 1031.32C-94.03 1031.18 -88.28 1031.02 -82.36 1030.89C-53.87 1030.18 -21.88 1029.43 12.86 1028.62C23.42 1028.37 34.28 1028.1 45.35 1027.86L103 1026.54C106.7 1026.46 110.43 1026.38 114.15 1026.32C131.657 1025.92 149.55 1025.52 167.83 1025.13L208.54 1024.24C217.99 1024.02 227.54 1023.84 237.14 1023.65C297.49 1022.38 360.56 1021.13 424.29 1019.97C431.04 1019.84 437.82 1019.73 444.6 1019.59C624.24 1016.41 807.3 1013.95 947.55 1013.95C1033.1 1013.95 1151.12 1014.35 1280.89 1014.95C1285.97 1014.95 1291.04 1014.95 1296.15 1014.95C1383.15 1015.38 1474.92 1015.95 1565.41 1016.44C1578.16 1016.52 1590.83 1016.6 1603.5 1016.65C1612.79 1016.73 1622.05 1016.79 1631.29 1016.84L1688.67 1017.19L1703.67 1017.3C1726.55 1017.43 1749.08 1017.58 1771.26 1017.73L1788.5 1017.84C1828.64 1018.11 1867.29 1018.35 1903.79 1018.62C2080.17 1019.92 2206.21 1020.89 2206.21 1020.89Z" fill="url(#paint28_radial_417_17835)"/>
<g style="mix-blend-mode:multiply" opacity="0.5">
<g style="mix-blend-mode:multiply" opacity="0.5">
<path fill-rule="evenodd" clip-rule="evenodd" d="M167.83 1025.16L142.65 1080.51L139.71 1086.97L137.22 1080.51L132.04 1067.11L127.47 1080.51L118.75 1106.23L111.86 1080.51L106.56 1060.77L103 1047.42V1026.57C106.7 1026.49 110.43 1026.41 114.15 1026.35C131.663 1025.95 149.557 1025.55 167.83 1025.16Z" fill="#880050"/>
</g>
<g style="mix-blend-mode:multiply" opacity="0.5">
<path fill-rule="evenodd" clip-rule="evenodd" d="M-12.18 1080.51L-26.74 1089.91L-6.51 1080.51L-1.16 1078.03V1080.86L-25.47 1092.72L-24.69 1101.31L-1.16 1085.89L-23.42 1160.06L-56.7 1089.91H-46.46L-58.21 1085.91L-60.86 1080.53L-83 1035.62L-63.82 1038.7L-82.32 1030.92C-53.83 1030.21 -21.84 1029.46 12.9 1028.65L0.650002 1072.22L-12.18 1080.51Z" fill="#880050"/>
</g>
<g style="mix-blend-mode:multiply" opacity="0.5">
<path fill-rule="evenodd" clip-rule="evenodd" d="M114.15 1026.35L106.56 1060.77L103.19 1076.14L96.0601 1080.51L88.4101 1085.21L88.6501 1087.64L98.9201 1080.51L103 1077.68L101 1089L87.4301 1092.49L101.13 1089.89L90.2401 1129.65L68.3601 1080.49L53.6701 1047.49L75.4101 1052.14L51.8601 1042.44L50.8601 1037.58L76.0001 1046.85L75.3201 1042.67L47.1801 1031.35L45.3101 1027.89L102.96 1026.57C106.7 1026.49 110.43 1026.41 114.15 1026.35Z" fill="#880050"/>
</g>
<g style="mix-blend-mode:multiply" opacity="0.5">
<path fill-rule="evenodd" clip-rule="evenodd" d="M235.28 1030.62L223.1 1026.22L235.28 1031.92L225.1 1073.08L208.54 1024.27C217.99 1024.05 227.54 1023.87 237.14 1023.68L235.28 1030.62Z" fill="#880050"/>
</g>
<g style="mix-blend-mode:multiply" opacity="0.5">
<path fill-rule="evenodd" clip-rule="evenodd" d="M444.6 1019.62L436 1047.1L424.29 1020C431 1019.87 437.82 1019.76 444.6 1019.62Z" fill="#880050"/>
</g>
<g style="mix-blend-mode:multiply" opacity="0.5">
<path fill-rule="evenodd" clip-rule="evenodd" d="M1703.69 1017.41V1055.79L1700.13 1069.09L1697.08 1080.51L1687.97 1114.57L1676.39 1080.51L1674.68 1075.51L1672.74 1080.51L1666.98 1095.31L1660.26 1080.51L1631.35 1017L1688.73 1017.35L1703.69 1017.41Z" fill="#880050"/>
</g>
<g style="mix-blend-mode:multiply" opacity="0.5">
<path fill-rule="evenodd" clip-rule="evenodd" d="M1892.57 1037.8L1870.57 1047.07L1889.75 1043.96L1871.75 1080.51L1864.97 1094.26L1853.22 1098.26H1863.43L1830.18 1168.41L1807.92 1094.23L1831.45 1109.66L1832.23 1101.07L1807.92 1089.18V1086.37L1833.5 1098.26L1806.11 1080.54V1080.48L1788.52 1018C1828.66 1018.27 1867.31 1018.51 1903.81 1018.78L1892.57 1037.8Z" fill="#880050"/>
</g>
<g style="mix-blend-mode:multiply" opacity="0.5">
<path fill-rule="evenodd" clip-rule="evenodd" d="M1296.18 1015.06L1286.83 1034.75L1280.92 1015.01C1286 1015 1291.07 1015.06 1296.18 1015.06Z" fill="#880050"/>
</g>
<g style="mix-blend-mode:multiply" opacity="0.5">
<path fill-rule="evenodd" clip-rule="evenodd" d="M1731.36 1051L1730.68 1055.19L1755.94 1045.92L1754.94 1050.76L1731.39 1060.48L1753.13 1055.84L1742.13 1080.47L1716.53 1137.98L1705.64 1098.25L1719.34 1100.81L1705.75 1097.35L1703.69 1086.01L1718.04 1096.01L1718.31 1093.58L1703.53 1084.47L1702.67 1080.47L1700.13 1069.05L1688.73 1017.26L1703.73 1017.37C1726.61 1017.5 1749.14 1017.65 1771.32 1017.8L1759.54 1039.68L1731.36 1051Z" fill="#880050"/>
</g>
<g style="mix-blend-mode:multiply" opacity="0.5">
<path fill-rule="evenodd" clip-rule="evenodd" d="M1603.56 1016.76L1582 1080.51L1581.67 1081.51L1581.43 1080.51L1571.49 1040.29L1583.67 1034.59L1571.49 1038.97L1565.49 1016.55C1578.22 1016.63 1590.89 1016.71 1603.56 1016.76Z" fill="#880050"/>
</g>
</g>
<path fill-rule="evenodd" clip-rule="evenodd" d="M2206.21 1020.89C2206.21 1020.89 1376.37 1013.16 882.63 1013.16C388.89 1013.16 -224.94 1034.54 -224.94 1034.54V1040C-224.94 1040 510.92 1015.73 882.5 1015.73C1254.08 1015.73 2206.21 1027 2206.21 1027V1020.89Z" fill="#0A001A"/>
<path style="mix-blend-mode:screen" opacity="0.95" fill-rule="evenodd" clip-rule="evenodd" d="M-222.38 1052.22H2207.93L2206.21 1080.51H-220.75L-222.38 1052.22Z" fill="url(#paint29_linear_417_17835)"/>
<g style="mix-blend-mode:soft-light">
<path fill-rule="evenodd" clip-rule="evenodd" d="M279.12 1025.56L1542.24 1020L1393.82 1018.67L295.19 1025.16L279.12 1025.56Z" fill="white"/>
</g>
<path d="M820.63 1024.27C823.39 1024.27 823.4 1019.96 820.63 1019.96C817.86 1019.96 817.85 1024.27 820.63 1024.27Z" fill="#FFE098"/>
<path d="M674.36 1025.56C677.13 1025.56 677.13 1021.26 674.36 1021.26C671.59 1021.26 671.59 1025.56 674.36 1025.56Z" fill="#FFE098"/>
<path d="M542.53 1027.71C545.3 1027.71 545.3 1023.41 542.53 1023.41C539.76 1023.41 539.76 1027.71 542.53 1027.71Z" fill="#FFE098"/>
<path d="M1381.21 1029.86C1383.98 1029.86 1383.99 1025.56 1381.21 1025.56C1378.43 1025.56 1378.44 1029.86 1381.21 1029.86Z" fill="#FFE098"/>
<path d="M295.19 1029.47C297.96 1029.47 297.96 1025.16 295.19 1025.16C292.42 1025.16 292.42 1029.47 295.19 1029.47Z" fill="#FFE098"/>
<path d="M1185.5 1022.28C1188.27 1022.28 1188.27 1017.97 1185.5 1017.97C1182.73 1017.97 1182.73 1022.28 1185.5 1022.28Z" fill="#FFE098"/>
<path d="M1542.24 1047.1C1545.01 1047.1 1545.01 1042.79 1542.24 1042.79C1539.47 1042.79 1539.47 1047.1 1542.24 1047.1Z" fill="#FFE098"/>
<path d="M1235.9 1022.28C1238.67 1022.28 1238.67 1017.97 1235.9 1017.97C1233.13 1017.97 1233.12 1022.28 1235.9 1022.28Z" fill="#FFE098"/>
<path d="M712.07 1024.27C714.83 1024.27 714.84 1019.96 712.07 1019.96C709.3 1019.96 709.29 1024.27 712.07 1024.27Z" fill="#FFE098"/>
<path d="M661.4 1054.37C664.17 1054.37 664.17 1050.06 661.4 1050.06C658.63 1050.06 658.63 1054.37 661.4 1054.37Z" fill="#FFE098"/>
<path d="M572.85 1042.14C575.62 1042.14 575.62 1037.84 572.85 1037.84C570.08 1037.84 570.08 1042.14 572.85 1042.14Z" fill="#FFE098"/>
<path d="M406 1052.22C408.76 1052.22 408.77 1047.91 406 1047.91C403.23 1047.91 403.19 1052.22 406 1052.22Z" fill="#FFE098"/>
<path d="M741 1031.35C743.77 1031.35 743.77 1027.05 741 1027.05C738.23 1027.05 738.27 1031.35 741 1031.35Z" fill="#FFE098"/>
<path d="M760.83 1049.25C763.6 1049.25 763.6 1044.95 760.83 1044.95C758.06 1044.95 758.05 1049.25 760.83 1049.25Z" fill="#FFE098"/>
<path d="M725.07 1030.88C727.84 1030.88 727.84 1026.58 725.07 1026.58C722.3 1026.58 722.3 1030.88 725.07 1030.88Z" fill="#FFE098"/>
<path d="M1068.75 1026.58C1071.51 1026.58 1071.52 1022.28 1068.75 1022.28C1065.98 1022.28 1066 1026.58 1068.75 1026.58Z" fill="#FFE098"/>
<path d="M876.36 1028.73C879.13 1028.73 879.13 1024.43 876.36 1024.43C873.59 1024.43 873.59 1028.73 876.36 1028.73Z" fill="#FFE098"/>
<path d="M1167.56 1024.43C1170.32 1024.43 1170.33 1020.12 1167.56 1020.12C1164.79 1020.12 1164.78 1024.43 1167.56 1024.43Z" fill="#FFE098"/>
<path d="M1253 1022.28C1255.77 1022.28 1255.77 1017.97 1253 1017.97C1250.23 1017.97 1250.26 1022.28 1253 1022.28Z" fill="#FFE098"/>
<path d="M912.76 1019.45C915.52 1019.45 915.53 1015.15 912.76 1015.15C909.99 1015.15 910 1019.45 912.76 1019.45Z" fill="#FFE098"/>
<path d="M1150.18 1038.73C1152.95 1038.73 1152.96 1034.43 1150.18 1034.43C1147.4 1034.43 1147.41 1038.73 1150.18 1038.73Z" fill="#FFE098"/>
<path d="M1229.65 1051.4C1232.42 1051.4 1232.42 1047.1 1229.65 1047.1C1226.88 1047.1 1226.88 1051.4 1229.65 1051.4Z" fill="#FFE098"/>
<path d="M1365.36 1029.86C1368.13 1029.86 1368.14 1025.56 1365.36 1025.56C1362.58 1025.56 1362.59 1029.86 1365.36 1029.86Z" fill="#FFE098"/>
<path d="M1488.61 1064.32C1491.38 1064.32 1491.38 1060.02 1488.61 1060.02C1485.84 1060.02 1485.83 1064.32 1488.61 1064.32Z" fill="#FFE098"/>
<path d="M822.7 1036.9C825.47 1036.9 825.48 1032.6 822.7 1032.6C819.92 1032.6 819.93 1036.9 822.7 1036.9Z" fill="#FFE098"/>
<path d="M789.14 1033.5C791.91 1033.5 791.92 1029.2 789.14 1029.2C786.36 1029.2 786.37 1033.5 789.14 1033.5Z" fill="#FFE098"/>
<path d="M1753.1 1060.18C1755.87 1060.18 1755.87 1055.88 1753.1 1055.88C1750.33 1055.88 1750.33 1060.18 1753.1 1060.18Z" fill="#FFE098"/>
<path d="M1248.33 1031.35C1251.1 1031.35 1251.1 1027.05 1248.33 1027.05C1245.56 1027.05 1245.55 1031.35 1248.33 1031.35Z" fill="#FFE098"/>
<path d="M1106.11 1031.62C1108.88 1031.62 1108.88 1027.31 1106.11 1027.31C1103.34 1027.31 1103.33 1031.62 1106.11 1031.62Z" fill="#FFE098"/>
<path d="M1007.39 1024.27C1010.16 1024.27 1010.16 1019.96 1007.39 1019.96C1004.62 1019.96 1004.61 1024.27 1007.39 1024.27Z" fill="#FFE098"/>
<path d="M932.15 1026.42C934.92 1026.42 934.92 1022.11 932.15 1022.11C929.38 1022.11 929.37 1026.42 932.15 1026.42Z" fill="#FFE098"/>
<path d="M639.39 1036.9C642.16 1036.9 642.16 1032.6 639.39 1032.6C636.62 1032.6 636.61 1036.9 639.39 1036.9Z" fill="#FFE098"/>
<path d="M1467.76 1027C1470.53 1027 1470.53 1022.7 1467.76 1022.7C1464.99 1022.7 1465 1027 1467.76 1027Z" fill="#FFE098"/>
<path d="M1235.9 1022.28C1238.67 1022.28 1238.67 1017.97 1235.9 1017.97C1233.13 1017.97 1233.12 1022.28 1235.9 1022.28Z" fill="#FFE098"/>
<path d="M520.64 1028.73C523.41 1028.73 523.42 1024.43 520.64 1024.43C517.86 1024.43 517.87 1028.73 520.64 1028.73Z" fill="#FFE098"/>
<path d="M490.29 1042.14C493.06 1042.14 493.06 1037.84 490.29 1037.84C487.52 1037.84 487.52 1042.14 490.29 1042.14Z" fill="#FFE098"/>
<path d="M345.6 1041.28C348.37 1041.28 348.37 1036.98 345.6 1036.98C342.83 1036.98 342.83 1041.28 345.6 1041.28Z" fill="#FFE098"/>
<path d="M612.36 1031.35C615.13 1031.35 615.14 1027.05 612.36 1027.05C609.58 1027.05 609.59 1031.35 612.36 1031.35Z" fill="#FFE098"/>
<path d="M1318.37 1053.55C1321.14 1053.55 1321.14 1049.25 1318.37 1049.25C1315.6 1049.25 1315.6 1053.55 1318.37 1053.55Z" fill="#FFE098"/>
<path d="M167.83 1044.29C170.6 1044.29 170.6 1039.99 167.83 1039.99C165.06 1039.99 165.06 1044.29 167.83 1044.29Z" fill="#FFE098"/>
<path d="M1642 1033.5C1644.77 1033.5 1644.77 1029.2 1642 1029.2C1639.23 1029.2 1639.23 1033.5 1642 1033.5Z" fill="#FFE098"/>
<path d="M1763.5 1025.56C1766.27 1025.56 1766.27 1021.26 1763.5 1021.26C1760.73 1021.26 1760.73 1025.56 1763.5 1025.56Z" fill="#FFE098"/>
<path d="M1321.5 1028.73C1324.27 1028.73 1324.27 1024.43 1321.5 1024.43C1318.73 1024.43 1318.73 1028.73 1321.5 1028.73Z" fill="#FFE098"/>
<path d="M633.93 1025.56C636.7 1025.56 636.7 1021.26 633.93 1021.26C631.16 1021.26 631.15 1025.56 633.93 1025.56Z" fill="#FFE098"/>
<path fill-rule="evenodd" clip-rule="evenodd" d="M848.72 1022.12L836.83 1034.53H1056.75L850.31 1038.81L970.67 1044L814.3 1056.03L935.53 1062.17L910.12 1057.05L1074.01 1044L961.93 1038.81L1078.53 1034.79L1057.31 1025.56L848.72 1022.12Z" fill="#FFFFCC"/>
<path fill-rule="evenodd" clip-rule="evenodd" d="M899.8 1069.17L1002.17 1071.98L930.1 1073.17L899.8 1069.17Z" fill="#FFFFCC"/>
<path style="mix-blend-mode:screen" d="M949.11 1130.36C1072.84 1130.36 1173.15 1034.58 1173.15 916.43C1173.15 798.28 1072.84 702.5 949.11 702.5C825.376 702.5 725.07 798.28 725.07 916.43C725.07 1034.58 825.376 1130.36 949.11 1130.36Z" fill="url(#paint30_radial_417_17835)"/>
<path style="mix-blend-mode:screen" d="M948.66 1071.2C1035.61 1071.2 1106.1 1003.89 1106.1 920.86C1106.1 837.829 1035.61 770.52 948.66 770.52C861.708 770.52 791.22 837.829 791.22 920.86C791.22 1003.89 861.708 1071.2 948.66 1071.2Z" fill="url(#paint31_radial_417_17835)"/>
<g opacity="0.5">
<path d="M1860.08 177.31C1862.85 177.31 1862.86 173 1860.08 173C1857.3 173 1857.31 177.31 1860.08 177.31Z" fill="#FF9098"/>
<path d="M21.0888 235.31C23.8488 235.31 23.8588 231 21.0888 231C18.3188 231 18.2888 235.31 21.0888 235.31Z" fill="#FF9098"/>
<path d="M1791.89 84.44C1794.66 84.44 1794.67 80.14 1791.89 80.14C1789.11 80.14 1789.12 84.44 1791.89 84.44Z" fill="#FF9098"/>
<path d="M1806.2 301.6C1808.97 301.6 1808.97 297.3 1806.2 297.3C1803.43 297.3 1803.42 301.6 1806.2 301.6Z" fill="#FF9098"/>
<path d="M1567.88 134.05C1570.65 134.05 1570.66 129.75 1567.88 129.75C1565.1 129.75 1565.11 134.05 1567.88 134.05Z" fill="#FF9098"/>
<path d="M1197.78 222C1200.55 222 1200.56 217.7 1197.78 217.7C1195 217.7 1195 222 1197.78 222Z" fill="#FF9098"/>
<path d="M1313.44 217.14C1316.21 217.14 1316.21 212.84 1313.44 212.84C1310.67 212.84 1310.67 217.14 1313.44 217.14Z" fill="#FF9098"/>
<path d="M671.077 161.31C673.847 161.31 673.847 157 671.077 157C668.307 157 668.307 161.31 671.077 161.31Z" fill="#FF9098"/>
<path d="M1325.76 604.25C1328.53 604.25 1328.54 599.95 1325.76 599.95C1322.98 599.95 1323 604.25 1325.76 604.25Z" fill="#FF9098"/>
<path d="M350.081 211.3C352.851 211.3 352.861 207 350.081 207C347.301 207 347.311 211.3 350.081 211.3Z" fill="#FF9098"/>
<path d="M1047.08 170.3C1049.85 170.3 1049.86 166 1047.08 166C1044.3 166 1044.31 170.3 1047.08 170.3Z" fill="#FF9098"/>
<path d="M453.93 93.0001C456.7 93.0001 456.7 88.7001 453.93 88.7001C451.16 88.7001 451.16 93.0001 453.93 93.0001Z" fill="#FF9098"/>
<path d="M899.49 566.71C902.26 566.71 902.26 562.41 899.49 562.41C896.72 562.41 896.72 566.71 899.49 566.71Z" fill="#FF9098"/>
<path d="M163.081 193.3C165.851 193.3 165.861 189 163.081 189C160.301 189 160.311 193.3 163.081 193.3Z" fill="#FF9098"/>
<path d="M52.0625 319.3C54.8325 319.3 54.8325 315 52.0625 315C49.2925 315 49.3325 319.3 52.0625 319.3Z" fill="#FF9098"/>
<path d="M167.22 60.09C169.99 60.09 170 55.79 167.22 55.79C164.44 55.79 164.45 60.09 167.22 60.09Z" fill="#FF9098"/>
<path d="M1524.06 273.75C1526.83 273.75 1526.83 269.45 1524.06 269.45C1521.29 269.45 1521.28 273.75 1524.06 273.75Z" fill="#FF9098"/>
<path d="M297.096 150.3C299.866 150.3 299.866 146 297.096 146C294.326 146 294.276 150.3 297.096 150.3Z" fill="#FF9098"/>
<path d="M773.081 193.3C775.851 193.3 775.851 189 773.081 189C770.311 189 770.301 193.3 773.081 193.3Z" fill="#FF9098"/>
</g>
</g>
<defs>
<radialGradient id="paint0_radial_417_17835" cx="0" cy="0" r="1" gradientUnits="userSpaceOnUse" gradientTransform="translate(947.65 1195.34) scale(2040.5 1101.87)">
<stop stop-color="#FFA610"/>
<stop offset="0.23" stop-color="#FF4D29"/>
<stop offset="0.41" stop-color="#AE1D3D"/>
<stop offset="0.53" stop-color="#7D0049"/>
<stop offset="0.59" stop-color="#6D0042"/>
<stop offset="0.77" stop-color="#3F002D"/>
<stop offset="0.92" stop-color="#230021"/>
<stop offset="1" stop-color="#18001C"/>
</radialGradient>
<radialGradient id="paint1_radial_417_17835" cx="0" cy="0" r="1" gradientUnits="userSpaceOnUse" gradientTransform="translate(798.89 864.34) scale(725.08)">
<stop stop-color="#BC153A"/>
<stop offset="0.26" stop-color="#B9143B"/>
<stop offset="0.48" stop-color="#AE113D"/>
<stop offset="0.69" stop-color="#9D0C41"/>
<stop offset="0.89" stop-color="#840546"/>
<stop offset="0.99" stop-color="#740049"/>
</radialGradient>
<linearGradient id="paint2_linear_417_17835" x1="114.15" y1="891.18" x2="1096.02" y2="891.18" gradientUnits="userSpaceOnUse">
<stop stop-color="#FF3D2A"/>
<stop offset="0.08" stop-color="#E4382A"/>
<stop offset="0.23" stop-color="#B83129"/>
<stop offset="0.39" stop-color="#942B28"/>
<stop offset="0.54" stop-color="#782628"/>
<stop offset="0.69" stop-color="#642327"/>
<stop offset="0.85" stop-color="#582127"/>
<stop offset="1" stop-color="#542027"/>
</linearGradient>
<linearGradient id="paint3_linear_417_17835" x1="252966" y1="7732.72" x2="1.15581e+06" y2="7732.72" gradientUnits="userSpaceOnUse">
<stop stop-color="#FF3D2A"/>
<stop offset="0.08" stop-color="#E4382A"/>
<stop offset="0.23" stop-color="#B83129"/>
<stop offset="0.39" stop-color="#942B28"/>
<stop offset="0.54" stop-color="#782628"/>
<stop offset="0.69" stop-color="#642327"/>
<stop offset="0.85" stop-color="#582127"/>
<stop offset="1" stop-color="#542027"/>
</linearGradient>
<linearGradient id="paint4_linear_417_17835" x1="975.67" y1="1036.58" x2="975.67" y2="877.73" gradientUnits="userSpaceOnUse">
<stop stop-color="#C03424"/>
<stop offset="0.17" stop-color="#A3252D"/>
<stop offset="0.38" stop-color="#871735"/>
<stop offset="0.58" stop-color="#730C3B"/>
<stop offset="0.79" stop-color="#67063F"/>
<stop offset="1" stop-color="#630440"/>
</linearGradient>
<radialGradient id="paint5_radial_417_17835" cx="0" cy="0" r="1" gradientUnits="userSpaceOnUse" gradientTransform="translate(992.33 757.64) scale(860.87 860.869)">
<stop stop-color="#BC1531"/>
<stop offset="0.24" stop-color="#B91432"/>
<stop offset="0.45" stop-color="#AE1235"/>
<stop offset="0.64" stop-color="#9D0D3A"/>
<stop offset="0.83" stop-color="#840741"/>
<stop offset="1" stop-color="#660049"/>
</radialGradient>
<linearGradient id="paint6_linear_417_17835" x1="990.64" y1="709.11" x2="990.64" y2="-1.42997" gradientUnits="userSpaceOnUse">
<stop stop-color="#830029"/>
<stop offset="0.22" stop-color="#75002B"/>
<stop offset="0.64" stop-color="#500032"/>
<stop offset="0.99" stop-color="#2C0038"/>
</linearGradient>
<linearGradient id="paint7_linear_417_17835" x1="966401" y1="45332" x2="966105" y2="9984.01" gradientUnits="userSpaceOnUse">
<stop stop-color="#FF3D2A"/>
<stop offset="0.08" stop-color="#E4382A"/>
<stop offset="0.23" stop-color="#B83129"/>
<stop offset="0.39" stop-color="#942B28"/>
<stop offset="0.54" stop-color="#782628"/>
<stop offset="0.69" stop-color="#642327"/>
<stop offset="0.85" stop-color="#582127"/>
<stop offset="1" stop-color="#542027"/>
</linearGradient>
<linearGradient id="paint8_linear_417_17835" x1="1.10513e+06" y1="20788.3" x2="1.10488e+06" y2="-1088.22" gradientUnits="userSpaceOnUse">
<stop stop-color="#FF3D2A"/>
<stop offset="0.08" stop-color="#E4382A"/>
<stop offset="0.23" stop-color="#B83129"/>
<stop offset="0.39" stop-color="#942B28"/>
<stop offset="0.54" stop-color="#782628"/>
<stop offset="0.69" stop-color="#642327"/>
<stop offset="0.85" stop-color="#582127"/>
<stop offset="1" stop-color="#542027"/>
</linearGradient>
<linearGradient id="paint9_linear_417_17835" x1="1605.21" y1="581.47" x2="1450.52" y2="-81.5101" gradientUnits="userSpaceOnUse">
<stop stop-color="#FF3D2A"/>
<stop offset="0.05" stop-color="#EB372A"/>
<stop offset="0.18" stop-color="#B82929"/>
<stop offset="0.32" stop-color="#8B1C28"/>
<stop offset="0.45" stop-color="#671228"/>
<stop offset="0.59" stop-color="#4B0A28"/>
<stop offset="0.73" stop-color="#370527"/>
<stop offset="0.86" stop-color="#2B0127"/>
<stop offset="1" stop-color="#270027"/>
</linearGradient>
<linearGradient id="paint10_linear_417_17835" x1="1040.05" y1="724.44" x2="896.75" y2="110.26" gradientUnits="userSpaceOnUse">
<stop stop-color="#FF3D2A"/>
<stop offset="0.14" stop-color="#CE2E29"/>
<stop offset="0.28" stop-color="#A22129"/>
<stop offset="0.42" stop-color="#7E1628"/>
<stop offset="0.57" stop-color="#620D28"/>
<stop offset="0.71" stop-color="#4E0727"/>
<stop offset="0.86" stop-color="#420327"/>
<stop offset="1" stop-color="#3E0227"/>
</linearGradient>
<linearGradient id="paint11_linear_417_17835" x1="54978" y1="74186.3" x2="53110.4" y2="23548.4" gradientUnits="userSpaceOnUse">
<stop stop-color="#FF3D2A"/>
<stop offset="0.08" stop-color="#E4382A"/>
<stop offset="0.23" stop-color="#B83129"/>
<stop offset="0.39" stop-color="#942B28"/>
<stop offset="0.54" stop-color="#782628"/>
<stop offset="0.69" stop-color="#642327"/>
<stop offset="0.85" stop-color="#582127"/>
<stop offset="1" stop-color="#542027"/>
</linearGradient>
<linearGradient id="paint12_linear_417_17835" x1="-2181.83" y1="218.13" x2="1165.78" y2="218.13" gradientUnits="userSpaceOnUse">
<stop stop-color="#FF3D2A"/>
<stop offset="0.01" stop-color="#FA3C2A"/>
<stop offset="0.15" stop-color="#C72C29"/>
<stop offset="0.29" stop-color="#9A1E28"/>
<stop offset="0.43" stop-color="#761328"/>
<stop offset="0.57" stop-color="#5A0B28"/>
<stop offset="0.71" stop-color="#460527"/>
<stop offset="0.85" stop-color="#3A0127"/>
<stop offset="0.99" stop-color="#360027"/>
</linearGradient>
<linearGradient id="paint13_linear_417_17835" x1="378.41" y1="145.61" x2="2114.83" y2="145.61" gradientUnits="userSpaceOnUse">
<stop stop-color="#3E0227"/>
<stop offset="0.14" stop-color="#420327"/>
<stop offset="0.29" stop-color="#4E0727"/>
<stop offset="0.43" stop-color="#620D28"/>
<stop offset="0.58" stop-color="#7E1628"/>
<stop offset="0.72" stop-color="#A22129"/>
<stop offset="0.86" stop-color="#CE2E29"/>
<stop offset="1" stop-color="#FF3D2A"/>
</linearGradient>
<linearGradient id="paint14_linear_417_17835" x1="1039.35" y1="967.204" x2="940.338" y2="358.878" gradientUnits="userSpaceOnUse">
<stop stop-color="#FF3D2A"/>
<stop offset="0.09" stop-color="#D73324"/>
<stop offset="0.22" stop-color="#A4251D"/>
<stop offset="0.35" stop-color="#771A16"/>
<stop offset="0.48" stop-color="#531111"/>
<stop offset="0.61" stop-color="#37090D"/>
<stop offset="0.74" stop-color="#23040A"/>
<stop offset="0.87" stop-color="#170109"/>
<stop offset="1" stop-color="#130008"/>
</linearGradient>
<linearGradient id="paint15_linear_417_17835" x1="3527.4" y1="53567.4" x2="1444.71" y2="21050.9" gradientUnits="userSpaceOnUse">
<stop stop-color="#FF3D2A"/>
<stop offset="0.08" stop-color="#E4382A"/>
<stop offset="0.23" stop-color="#B83129"/>
<stop offset="0.39" stop-color="#942B28"/>
<stop offset="0.54" stop-color="#782628"/>
<stop offset="0.69" stop-color="#642327"/>
<stop offset="0.85" stop-color="#582127"/>
<stop offset="1" stop-color="#542027"/>
</linearGradient>
<linearGradient id="paint16_linear_417_17835" x1="-246.59" y1="393.14" x2="2130.14" y2="393.14" gradientUnits="userSpaceOnUse">
<stop/>
<stop offset="0.13" stop-color="#040101"/>
<stop offset="0.25" stop-color="#100403"/>
<stop offset="0.38" stop-color="#240906"/>
<stop offset="0.5" stop-color="#400F0B"/>
<stop offset="0.63" stop-color="#641811"/>
<stop offset="0.75" stop-color="#912318"/>
<stop offset="0.88" stop-color="#C42F20"/>
<stop offset="1" stop-color="#FF3D2A"/>
</linearGradient>
<linearGradient id="paint17_linear_417_17835" x1="1.17837e+06" y1="67506.9" x2="2.35855e+06" y2="67506.9" gradientUnits="userSpaceOnUse">
<stop/>
<stop offset="0.13" stop-color="#040101"/>
<stop offset="0.25" stop-color="#100403"/>
<stop offset="0.38" stop-color="#240906"/>
<stop offset="0.5" stop-color="#400F0B"/>
<stop offset="0.63" stop-color="#641811"/>
<stop offset="0.75" stop-color="#912318"/>
<stop offset="0.88" stop-color="#C42F20"/>
<stop offset="1" stop-color="#FF3D2A"/>
</linearGradient>
<linearGradient id="paint18_linear_417_17835" x1="-24.46" y1="679.33" x2="1018.74" y2="679.33" gradientUnits="userSpaceOnUse">
<stop offset="0.05"/>
<stop offset="0.49" stop-color="#732D13"/>
<stop offset="1" stop-color="#FF632A"/>
</linearGradient>
<linearGradient id="paint19_linear_417_17835" x1="20072.1" y1="43177.5" x2="1.75492e+06" y2="43177.5" gradientUnits="userSpaceOnUse">
<stop offset="0.05"/>
<stop offset="0.49" stop-color="#732D13"/>
<stop offset="1" stop-color="#FF632A"/>
</linearGradient>
<linearGradient id="paint20_linear_417_17835" x1="815.37" y1="510.12" x2="815.37" y2="446.32" gradientUnits="userSpaceOnUse">
<stop stop-color="#FF3D2A"/>
<stop offset="0.12" stop-color="#C42F20"/>
<stop offset="0.25" stop-color="#912318"/>
<stop offset="0.37" stop-color="#641811"/>
<stop offset="0.5" stop-color="#400F0B"/>
<stop offset="0.62" stop-color="#240906"/>
<stop offset="0.75" stop-color="#100403"/>
<stop offset="0.87" stop-color="#040101"/>
<stop offset="1"/>
</linearGradient>
<linearGradient id="paint21_linear_417_17835" x1="732756" y1="35961.1" x2="2.85973e+06" y2="35961.1" gradientUnits="userSpaceOnUse">
<stop/>
<stop offset="0.13" stop-color="#040101"/>
<stop offset="0.25" stop-color="#100403"/>
<stop offset="0.38" stop-color="#240906"/>
<stop offset="0.5" stop-color="#400F0B"/>
<stop offset="0.63" stop-color="#641811"/>
<stop offset="0.75" stop-color="#912318"/>
<stop offset="0.88" stop-color="#C42F20"/>
<stop offset="1" stop-color="#FF3D2A"/>
</linearGradient>
<linearGradient id="paint22_linear_417_17835" x1="1113.55" y1="361.12" x2="2151.59" y2="361.12" gradientUnits="userSpaceOnUse">
<stop/>
<stop offset="0.14" stop-color="#040101"/>
<stop offset="0.29" stop-color="#100503"/>
<stop offset="0.43" stop-color="#240B08"/>
<stop offset="0.58" stop-color="#40140E"/>
<stop offset="0.72" stop-color="#642016"/>
<stop offset="0.86" stop-color="#902D1F"/>
<stop offset="1" stop-color="#C23D2A"/>
</linearGradient>
<linearGradient id="paint23_linear_417_17835" x1="1.95326e+06" y1="121178" x2="1.95326e+06" y2="83874.7" gradientUnits="userSpaceOnUse">
<stop stop-color="#FF3D2A"/>
<stop offset="0.12" stop-color="#C42F20"/>
<stop offset="0.25" stop-color="#912318"/>
<stop offset="0.37" stop-color="#641811"/>
<stop offset="0.5" stop-color="#400F0B"/>
<stop offset="0.62" stop-color="#240906"/>
<stop offset="0.75" stop-color="#100403"/>
<stop offset="0.87" stop-color="#040101"/>
<stop offset="1"/>
</linearGradient>
<linearGradient id="paint24_linear_417_17835" x1="865625" y1="18103.9" x2="4.17307e+06" y2="18103.9" gradientUnits="userSpaceOnUse">
<stop offset="0.05"/>
<stop offset="0.49" stop-color="#732D13"/>
<stop offset="1" stop-color="#FF632A"/>
</linearGradient>
<radialGradient id="paint25_radial_417_17835" cx="0" cy="0" r="1" gradientUnits="userSpaceOnUse" gradientTransform="translate(1094.93 400.511) rotate(-4.37) scale(889.878 213.827)">
<stop stop-color="#D81F00"/>
<stop offset="0.02" stop-color="#D31E00"/>
<stop offset="0.38" stop-color="#7A1100"/>
<stop offset="0.68" stop-color="#380800"/>
<stop offset="0.89" stop-color="#0F0200"/>
<stop offset="1"/>
</radialGradient>
<radialGradient id="paint26_radial_417_17835" cx="0" cy="0" r="1" gradientUnits="userSpaceOnUse" gradientTransform="translate(1046.2 651.367) rotate(-2.41) scale(633.314 43.7039)">
<stop stop-color="#D83700"/>
<stop offset="0.02" stop-color="#D33600"/>
<stop offset="0.38" stop-color="#7A1F00"/>
<stop offset="0.68" stop-color="#380E00"/>
<stop offset="0.89" stop-color="#0F0400"/>
<stop offset="1"/>
</radialGradient>
<radialGradient id="paint27_radial_417_17835" cx="0" cy="0" r="1" gradientUnits="userSpaceOnUse" gradientTransform="translate(992.69 983.99) scale(862.28)">
<stop stop-color="#74084E"/>
<stop offset="0.34" stop-color="#51053A"/>
<stop offset="0.77" stop-color="#290124"/>
<stop offset="1" stop-color="#1A001B"/>
</radialGradient>
<radialGradient id="paint28_radial_417_17835" cx="0" cy="0" r="1" gradientUnits="userSpaceOnUse" gradientTransform="translate(947.65 1059.24) scale(2035.79 834.674)">
<stop stop-color="#FF9F2F"/>
<stop offset="0.27" stop-color="#FF500D"/>
<stop offset="0.41" stop-color="#C2262E"/>
<stop offset="0.53" stop-color="#910549"/>
<stop offset="0.67" stop-color="#56032E"/>
<stop offset="0.8" stop-color="#27011A"/>
<stop offset="0.9" stop-color="#0B000D"/>
<stop offset="0.96" stop-color="#000008"/>
</radialGradient>
<linearGradient id="paint29_linear_417_17835" x1="-222.38" y1="1066.36" x2="2207.93" y2="1066.36" gradientUnits="userSpaceOnUse">
<stop/>
<stop offset="0.18" stop-color="#040102"/>
<stop offset="0.35" stop-color="#100506"/>
<stop offset="0.53" stop-color="#240A0E"/>
<stop offset="0.71" stop-color="#401219"/>
<stop offset="0.88" stop-color="#641D27"/>
<stop offset="1" stop-color="#812533"/>
</linearGradient>
<radialGradient id="paint30_radial_417_17835" cx="0" cy="0" r="1" gradientUnits="userSpaceOnUse" gradientTransform="translate(949.318 915.87) scale(224.07 213.827)">
<stop stop-color="#FF2522"/>
<stop offset="0.15" stop-color="#D31F1C"/>
<stop offset="0.46" stop-color="#7A1210"/>
<stop offset="0.72" stop-color="#380807"/>
<stop offset="0.9" stop-color="#100202"/>
<stop offset="1"/>
</radialGradient>
<radialGradient id="paint31_radial_417_17835" cx="0" cy="0" r="1" gradientUnits="userSpaceOnUse" gradientTransform="translate(948.88 920.296) scale(157.465 150.267)">
<stop stop-color="#FFA422"/>
<stop offset="0.09" stop-color="#F49D21"/>
<stop offset="0.24" stop-color="#D78A1D"/>
<stop offset="0.43" stop-color="#A86C16"/>
<stop offset="0.67" stop-color="#67420E"/>
<stop offset="0.94" stop-color="#150D03"/>
<stop offset="1"/>
</radialGradient>
<clipPath id="clip0_417_17835">
<rect width="1920" height="1080" fill="white"/>
</clipPath>
</defs>
</svg>
