<svg width="32" height="32" viewBox="0 0 32 32" fill="none" xmlns="http://www.w3.org/2000/svg">
<path d="M7.51466 7.51469C12.2013 2.82803 19.7987 2.82803 24.4853 7.51469C29.172 12.2014 29.172 19.7987 24.4853 24.4854C19.7987 29.172 12.2013 29.172 7.51466 24.4854C2.828 19.7987 2.828 12.2014 7.51466 7.51469V7.51469Z" stroke="#FFA900" stroke-width="1.5" stroke-linecap="round" stroke-linejoin="round"/>
<path d="M17.1785 14.8215C17.8294 15.4723 17.8294 16.5276 17.1785 17.1785C16.5277 17.8294 15.4724 17.8294 14.8215 17.1785C14.1706 16.5276 14.1706 15.4723 14.8215 14.8215C15.4724 14.1706 16.5276 14.1706 17.1785 14.8215Z" stroke="#FFA900" stroke-width="1.5" stroke-linecap="round" stroke-linejoin="round"/>
<path d="M10.4146 20.86L11.1853 12.3933C11.244 11.752 11.752 11.244 12.392 11.1866L20.8586 10.4173C21.2733 10.38 21.62 10.7266 21.5826 11.1413L20.8133 19.608C20.7546 20.2493 20.2466 20.7573 19.6066 20.8146L11.1386 21.584C10.7253 21.6213 10.3773 21.2746 10.4146 20.86V20.86Z" stroke="#FFA900" stroke-width="1.5" stroke-linecap="round" stroke-linejoin="round"/>
</svg>
