<svg width="68" height="50" viewBox="0 0 68 50" fill="none" xmlns="http://www.w3.org/2000/svg">
<path d="M0.00015186 32.1263C0.00015186 35.2489 0.823307 38.317 2.38728 41.0251C3.95126 43.7329 6.20166 45.9865 8.91413 47.5609C11.6269 49.1356 14.7072 49.9761 17.8483 49.9992C20.9896 50.0222 24.082 49.227 26.8176 47.6923C28.6568 49.0357 30.8443 49.8277 33.1216 49.9749C35.399 50.1221 37.6713 49.6182 39.6699 48.5231C42.1492 49.5056 44.795 50.0069 47.4641 49.9999C58.7879 49.9999 68 41.1182 68 30.2004C68 19.2826 58.7879 10.4009 47.4641 10.4009H47.4593C45.2178 6.68313 41.8936 3.72945 37.9266 1.93055C33.9597 0.13166 29.5369 -0.427659 25.2431 0.326588C20.9493 1.08083 16.9871 3.11311 13.8805 6.15455C10.7742 9.19599 8.66963 13.1033 7.84571 17.3595C5.41905 18.9917 3.43405 21.1926 2.06598 23.7679C0.697657 26.3434 -0.0119349 29.2139 0.00015186 32.1263ZM26.9997 43.1111C26.5817 43.1109 26.1735 43.2373 25.8296 43.4733C24.3028 44.5161 22.581 45.244 20.7662 45.614C18.9514 45.984 17.0805 45.9882 15.264 45.6268C13.4477 45.2651 11.7225 44.5452 10.1908 43.5094C8.65905 42.4736 7.35192 41.143 6.34671 39.596C5.34149 38.0494 4.65859 36.3177 4.33804 34.504C4.01774 32.6902 4.06684 30.8309 4.48182 29.0365C4.89705 27.2417 5.6701 25.5481 6.75514 24.0556C7.84043 22.5631 9.2158 21.3021 10.7997 20.3472C11.0595 20.1903 11.2811 19.9784 11.4488 19.7264C11.6165 19.4745 11.7263 19.1889 11.7701 18.8899C12.3052 15.2686 13.9818 11.9093 16.5585 9.29494C19.1355 6.68058 22.48 4.94583 26.1111 4.34015C29.7424 3.73445 33.4732 4.28904 36.7676 5.92412C40.0617 7.55922 42.7492 10.1906 44.4442 13.4399C44.6275 13.7928 44.9103 14.0849 45.258 14.2806C45.6057 14.4762 46.0033 14.5668 46.402 14.5413C46.8099 14.5162 47.1481 14.5042 47.4659 14.5042C56.5143 14.5042 63.8759 21.5462 63.8759 30.2014C63.8759 38.8566 56.5133 45.8983 47.4659 45.8983C45.0151 45.9061 42.5924 45.38 40.3682 44.3572C40.0428 44.2078 39.684 44.1449 39.3269 44.175C38.9699 44.2053 38.6269 44.3274 38.3318 44.5294C36.8401 45.5492 35.0389 46.023 33.235 45.8703C31.4313 45.7176 29.7366 44.9479 28.4398 43.6921C28.0543 43.3192 27.5376 43.1106 26.9997 43.1111Z" fill="url(#paint0_linear_490_561)"/>
<path fill-rule="evenodd" clip-rule="evenodd" d="M45.0514 36.1244C44.018 36.0029 43.1204 36.8112 42.923 37.8327C42.3682 40.7034 40.6494 43.1701 38.0721 44.6995L37.1076 45.2718L39.4214 48.4409L40.3859 47.8686C43.9545 45.751 46.0375 42.42 46.754 38.2855C46.9402 37.2111 46.1343 36.2517 45.0514 36.1244Z" fill="url(#paint1_linear_490_561)"/>
<path fill-rule="evenodd" clip-rule="evenodd" d="M21.5223 16.943C21.2341 18.0093 20.135 18.6234 19.0371 18.5023C15.7294 18.1375 12.3774 19.0572 9.70041 21.1186L8.71482 21.8776L6.27436 18.7083L7.25995 17.9494C10.9275 15.1252 15.5634 13.9389 20.0872 14.6051C21.18 14.766 21.8106 15.8767 21.5223 16.943Z" fill="url(#paint2_linear_490_561)"/>
<defs>
<linearGradient id="paint0_linear_490_561" x1="34" y1="0" x2="34" y2="50" gradientUnits="userSpaceOnUse">
<stop stop-color="#FFA900"/>
<stop offset="1" stop-color="#D79A24"/>
</linearGradient>
<linearGradient id="paint1_linear_490_561" x1="34" y1="0" x2="34" y2="50" gradientUnits="userSpaceOnUse">
<stop stop-color="#FFA900"/>
<stop offset="1" stop-color="#D79A24"/>
</linearGradient>
<linearGradient id="paint2_linear_490_561" x1="34" y1="0" x2="34" y2="50" gradientUnits="userSpaceOnUse">
<stop stop-color="#FFA900"/>
<stop offset="1" stop-color="#D79A24"/>
</linearGradient>
</defs>
</svg>
