<svg width="12" height="12" viewBox="0 0 12 12" fill="none" xmlns="http://www.w3.org/2000/svg">
<path d="M7.99999 9V8H8.49999C8.81054 7.99983 9.11679 7.92734 9.39446 7.78827C9.67214 7.64921 9.91362 7.4474 10.0998 7.19882C10.2859 6.95023 10.4116 6.66172 10.4669 6.35613C10.5222 6.05054 10.5056 5.73627 10.4184 5.43822C10.3311 5.14017 10.1757 4.86653 9.96435 4.63897C9.75302 4.41142 9.49159 4.23621 9.20079 4.12722C8.90999 4.01823 8.59781 3.97845 8.28897 4.01105C7.98013 4.04364 7.68313 4.14771 7.42149 4.315C7.2975 3.78681 7.03259 3.30213 6.65496 2.91257C6.27734 2.523 5.80114 2.24313 5.27707 2.10276C4.75299 1.96239 4.20066 1.96676 3.67887 2.11542C3.15709 2.26408 2.68539 2.55146 2.31398 2.94696C1.94258 3.34246 1.68539 3.83128 1.56978 4.36137C1.45417 4.89146 1.48448 5.44297 1.65748 5.9572C1.83048 6.47143 2.13969 6.92912 2.5522 7.28154C2.9647 7.63396 3.46505 7.86791 3.99999 7.9585V8.9695C2.99054 8.84207 2.06758 8.3348 1.41892 7.55092C0.770269 6.76704 0.444666 5.76546 0.508375 4.75C0.572084 3.73454 1.02032 2.78151 1.76186 2.08486C2.5034 1.3882 3.48253 1.00026 4.49999 1C5.21084 0.999693 5.90892 1.18887 6.52235 1.54805C7.13578 1.90723 7.64238 2.42344 7.98999 3.0435C8.39942 2.97301 8.81903 2.98832 9.22223 3.08848C9.62543 3.18863 10.0034 3.37144 10.3323 3.62533C10.6612 3.87921 10.9337 4.19863 11.1326 4.56335C11.3316 4.92807 11.4526 5.33013 11.4881 5.74407C11.5235 6.15801 11.4726 6.5748 11.3385 6.96804C11.2045 7.36127 10.9902 7.72237 10.7093 8.02846C10.4284 8.33455 10.087 8.57896 9.70665 8.7462C9.32634 8.91344 8.91544 8.99986 8.49999 9H7.99999ZM5.11599 9.366L5.99999 8.482L6.88399 9.366C7.05877 9.54083 7.17779 9.76356 7.22599 10.006C7.2742 10.2485 7.24942 10.4998 7.15481 10.7282C7.06019 10.9566 6.89997 11.1518 6.69442 11.2891C6.48886 11.4265 6.2472 11.4998 5.99999 11.4998C5.75277 11.4998 5.51111 11.4265 5.30556 11.2891C5.1 11.1518 4.93979 10.9566 4.84517 10.7282C4.75055 10.4998 4.72578 10.2485 4.77398 10.006C4.82219 9.76356 4.94121 9.54083 5.11599 9.366V9.366Z" fill="#B5B5B5"/>
</svg>
