<svg width="52" height="52" viewBox="0 0 52 52" fill="none" xmlns="http://www.w3.org/2000/svg">
<path d="M0 26C0 11.6406 11.6406 0 26 0V0C40.3594 0 52 11.6406 52 26V26V26C52 40.3594 40.3594 52 26 52V52C11.6406 52 0 40.3594 0 26V26V26Z" fill="#FFA900"/>
<path d="M34.2142 32.9215L29.9051 28.5946C31.0131 27.323 31.6201 25.7231 31.6201 24.0575C31.6201 20.1661 28.3408 17 24.3101 17C20.2794 17 17 20.1661 17 24.0575C17 27.949 20.2794 31.1151 24.3101 31.1151C25.8232 31.1151 27.2652 30.6744 28.4981 29.838L32.8399 34.1977C33.0214 34.3797 33.2655 34.48 33.5271 34.48C33.7747 34.48 34.0095 34.3889 34.1878 34.2232C34.5667 33.8712 34.5788 33.2876 34.2142 32.9215ZM24.3101 18.8411C27.2894 18.8411 29.7131 21.1811 29.7131 24.0575C29.7131 26.934 27.2894 29.274 24.3101 29.274C21.3307 29.274 18.907 26.934 18.907 24.0575C18.907 21.1811 21.3307 18.8411 24.3101 18.8411Z" fill="#1A1617"/>
</svg>
