<svg width="24" height="24" viewBox="0 0 24 24" fill="none" xmlns="http://www.w3.org/2000/svg">
<path d="M20.2142 18.9215L15.9051 14.5946C17.0131 13.323 17.6201 11.7231 17.6201 10.0575C17.6201 6.16607 14.3408 3 10.3101 3C6.27935 3 3 6.16607 3 10.0575C3 13.949 6.27935 17.1151 10.3101 17.1151C11.8232 17.1151 13.2652 16.6744 14.4981 15.838L18.8399 20.1977C19.0214 20.3797 19.2655 20.48 19.5271 20.48C19.7747 20.48 20.0095 20.3889 20.1878 20.2232C20.5667 19.8712 20.5788 19.2876 20.2142 18.9215ZM10.3101 4.8411C13.2894 4.8411 15.7131 7.18113 15.7131 10.0575C15.7131 12.934 13.2894 15.274 10.3101 15.274C7.33073 15.274 4.90697 12.934 4.90697 10.0575C4.90697 7.18113 7.33073 4.8411 10.3101 4.8411Z" fill="#39383B"/>
</svg>
